# xmcd
#
# Track frame offsets:
#   150
#   19117
#   31742
#   47542
#   64777
#   79531
#   93386
#   113379
#   129569
#   150422
#   165147
#   177795
#   189552
#   200719
#   221886
#   235576
#   249429
#   260473
#   274075
#   285326
#   303838
#   316964
#   335929
#
# Disc length: 4629 seconds
#
# Revision: 0
# Processed by: cddbd v1.4PL0 Copyright (c) Steve Scherf et al.
# Submitted via: uFREEDB 1.6.0
#
DISCID=2c121317
DTITLE=crabb family - crabb family
DYEAR=1900
DGENRE=Gospel and Religious
TTITLE0=through the fire
TTITLE1=i'm almost home
TTITLE2=trail of tears
TTITLE3=another valley left behind
TTITLE4=there ain't no grave
TTITLE5=takin it back
TTITLE6=heal our land
TTITLE7=that's no mountain
TTITLE8=going away party
TTITLE9=midst of the flames
TTITLE10=i'll take jesus
TTITLE11=the lamb the lion an the king
TTITLE12=01
TTITLE13=i'm still holding on
TTITLE14=if god built the building
TTITLE15=victory in jesus
TTITLE16=gonna find a mountian
TTITLE17=walking on the water
TTITLE18=a place we've never been
TTITLE19=please come down to me
TTITLE20=singing and rejoicing
TTITLE21=through the fire
TTITLE22=08
EXTD=
EXTT0=
EXTT1=
EXTT2=
EXTT3=
EXTT4=
EXTT5=
EXTT6=
EXTT7=
EXTT8=
EXTT9=
EXTT10=
EXTT11=
EXTT12=
EXTT13=
EXTT14=
EXTT15=
EXTT16=
EXTT17=
EXTT18=
EXTT19=
EXTT20=
EXTT21=
EXTT22=
PLAYORDER=
